<?xml version="1.0" encoding="UTF-8"?>
<svg width="16px" height="16px" viewBox="0 0 16 16" version="1.1" xmlns="http://www.w3.org/2000/svg" xmlns:xlink="http://www.w3.org/1999/xlink">
    <!-- Generator: Sketch 46.1 (44463) - http://www.bohemiancoding.com/sketch -->
    <title>information</title>
    <desc>Created with Sketch.</desc>
    <defs></defs>
    <g id="-" stroke="none" stroke-width="1" fill="none" fill-rule="evenodd">
        <g id="2-UI-pieces-Copy" transform="translate(-954.000000, -625.000000)" fill="#FFFFFF">
            <path d="M962,625 C964.209888,625 966.095671,625.780856 967.657407,627.342593 C969.219144,628.904329 970,630.790112 970,633 C970,635.209888 969.219144,637.095671 967.657407,638.657407 C966.095671,640.219144 964.209888,641 962,641 C959.790112,641 957.904329,640.219144 956.342593,638.657407 C954.780856,637.095671 954,635.209888 954,633 C954,630.790112 954.780856,628.904329 956.342593,627.342593 C957.904329,625.780856 959.790112,625 962,625 Z M963,638 L963,632.333333 L961,632.333333 L961,638 L963,638 Z M962,630.666667 C962.370372,630.666667 962.685184,630.537038 962.944444,630.277778 C963.203705,630.018517 963.333333,629.703706 963.333333,629.333333 C963.333333,628.962961 963.203705,628.648149 962.944444,628.388889 C962.685184,628.129628 962.370372,628 962,628 C961.629628,628 961.314816,628.129628 961.055556,628.388889 C960.796295,628.648149 960.666667,628.962961 960.666667,629.333333 C960.666667,629.703706 960.796295,630.018517 961.055556,630.277778 C961.314816,630.537038 961.629628,630.666667 962,630.666667 Z" id="information"></path>
        </g>
    </g>
</svg>